<svg width="21" height="24" viewBox="0 0 21 24" fill="none" xmlns="http://www.w3.org/2000/svg">
<path d="M19.204 17.4254L19.9155 16.9562H19.9155L19.204 17.4254ZM17.9525 13.3374L18.8048 13.3283V13.3374H17.9525ZM17.9263 10.8658L17.074 10.8748V10.8658H17.9263ZM2.20699 17.4452L1.48664 16.9897L1.48665 16.9897L2.20699 17.4452ZM3.41138 13.3374L4.26365 13.3279V13.3374H3.41138ZM3.38511 10.9883L2.53284 10.9978V10.9883H3.38511ZM13.0304 21.2282C13.3909 20.9255 13.9285 20.9724 14.2311 21.3328C14.5338 21.6933 14.4869 22.2309 14.1265 22.5336L13.5784 21.8809L13.0304 21.2282ZM7.29122 22.5336C6.93074 22.2309 6.88387 21.6933 7.18654 21.3328C7.48921 20.9724 8.0268 20.9255 8.38728 21.2282L7.83925 21.8809L7.29122 22.5336ZM20.6964 4.89821C20.8559 5.34108 20.6261 5.82935 20.1832 5.98879C19.7403 6.14822 19.2521 5.91845 19.0926 5.47558L19.8945 5.18689L20.6964 4.89821ZM16.2229 1.82175C15.8193 1.57962 15.6883 1.05611 15.9305 0.652469C16.1726 0.248823 16.6961 0.117888 17.0997 0.360017L16.6613 1.09088L16.2229 1.82175ZM4.33504 0.376043C4.73594 0.129403 5.26088 0.25446 5.50752 0.655365C5.75416 1.05627 5.62911 1.58121 5.2282 1.82785L4.78162 1.10195L4.33504 0.376043ZM2.33036 5.45652C2.17529 5.90095 1.68931 6.13551 1.24489 5.98045C0.80047 5.82538 0.565901 5.3394 0.720966 4.89498L1.52566 5.17575L2.33036 5.45652ZM19.204 17.4254L18.4925 17.8945C17.7883 16.8266 17.1003 15.2494 17.1003 13.3374H17.9525H18.8048C18.8048 14.8368 19.346 16.0925 19.9155 16.9562L19.204 17.4254ZM17.9525 13.3374L17.1003 13.3465L17.074 10.8748L17.9263 10.8658L18.7785 10.8567L18.8048 13.3283L17.9525 13.3374ZM2.20699 17.4452L1.48665 16.9897C2.03295 16.1257 2.5591 14.8575 2.5591 13.3374H3.41138H4.26365C4.26365 15.2522 3.60289 16.8323 2.92734 17.9007L2.20699 17.4452ZM3.41138 13.3374L2.55916 13.3469L2.53289 10.9978L3.38511 10.9883L4.23733 10.9787L4.2636 13.3279L3.41138 13.3374ZM3.38511 10.9883H2.53284C2.53284 5.97508 6.0841 1.69879 10.7088 1.69879V2.55106V3.40334C7.24401 3.40334 4.23738 6.68198 4.23738 10.9883H3.38511ZM2.64529 18.5907V19.4429C1.90534 19.4429 1.50372 18.8595 1.35973 18.4698C1.20694 18.0563 1.17742 17.4787 1.48664 16.9897L2.20699 17.4452L2.92734 17.9007C2.95388 17.8587 2.95282 17.8336 2.95239 17.8423C2.95198 17.8507 2.95391 17.8662 2.95862 17.879C2.96431 17.8944 2.96117 17.8734 2.92232 17.8382C2.87679 17.7971 2.77996 17.7384 2.64529 17.7384V18.5907ZM17.9263 10.8658H17.074C17.074 6.62714 14.115 3.40334 10.7088 3.40334V2.55106V1.69879C15.2749 1.69879 18.7785 5.92025 18.7785 10.8658H17.9263ZM18.7714 18.5907V17.7384C18.6336 17.7384 18.5359 17.7994 18.4914 17.8404C18.4537 17.8751 18.452 17.8946 18.4584 17.8766C18.4639 17.8613 18.4658 17.8437 18.4653 17.8342C18.4647 17.8243 18.4636 17.8507 18.4925 17.8945L19.204 17.4254L19.9155 16.9562C20.2394 17.4473 20.2124 18.0349 20.063 18.4516C19.923 18.8425 19.5229 19.4429 18.7714 19.4429V18.5907ZM2.64529 18.5907V17.7384H18.7714V18.5907V19.4429H2.64529V18.5907ZM10.7088 22.9091V22.0568C11.6092 22.0568 12.4212 21.7397 13.0304 21.2282L13.5784 21.8809L14.1265 22.5336C13.2126 23.3008 12.0133 23.7613 10.7088 23.7613V22.9091ZM7.83925 21.8809L8.38728 21.2282C8.99652 21.7397 9.80848 22.0568 10.7088 22.0568V22.9091V23.7613C9.40434 23.7613 8.20504 23.3008 7.29122 22.5336L7.83925 21.8809ZM19.8945 5.18689L19.0926 5.47558C18.5209 3.8874 17.5084 2.59287 16.2229 1.82175L16.6613 1.09088L17.0997 0.360017C18.7682 1.36082 20.0109 2.99392 20.6964 4.89821L19.8945 5.18689ZM4.78162 1.10195L5.2282 1.82785C3.91231 2.63739 2.8716 3.90533 2.33036 5.45652L1.52566 5.17575L0.720966 4.89498C1.39133 2.97372 2.68487 1.39124 4.33504 0.376043L4.78162 1.10195Z" fill="#F9682F"/>
</svg>
