<svg width="3" height="18" viewBox="0 0 3 18" fill="none" xmlns="http://www.w3.org/2000/svg">
<path d="M1.25 2.509C0.559644 2.509 0 1.94936 0 1.259V1.25C0 0.559644 0.559644 0 1.25 0C1.94036 0 2.5 0.559644 2.5 1.25V1.259C2.5 1.94936 1.94036 2.509 1.25 2.509Z" fill="black"/>
<path d="M1.25 10.009C0.559644 10.009 0 9.44936 0 8.759V8.75C0 8.05964 0.559644 7.5 1.25 7.5C1.94036 7.5 2.5 8.05964 2.5 8.75V8.759C2.5 9.44936 1.94036 10.009 1.25 10.009Z" fill="black"/>
<path d="M0 16.259C0 16.9494 0.559644 17.509 1.25 17.509C1.94036 17.509 2.5 16.9494 2.5 16.259V16.25C2.5 15.5596 1.94036 15 1.25 15C0.559644 15 0 15.5596 0 16.25V16.259Z" fill="black"/>
</svg>
