<svg width="23" height="23" viewBox="0 0 23 23" fill="none" xmlns="http://www.w3.org/2000/svg">
<path d="M16.0981 11.3636C16.0981 12.9735 14.867 14.2045 13.2572 14.2045C11.6473 14.2045 10.4163 12.9735 10.4163 11.3636C10.4163 9.75376 11.6473 8.5227 13.2572 8.5227C14.867 8.5227 16.0981 9.75376 16.0981 11.3636ZM20.8329 6.62876V17.0454C20.8329 18.0871 19.9807 18.9394 18.939 18.9394H3.78749C2.74583 18.9394 1.89355 18.0871 1.89355 17.0454V6.62876C1.89355 5.58709 2.74583 4.73482 3.78749 4.73482V3.78785H7.57537V4.73482H9.46931L10.4163 2.84088H16.0981L17.0451 4.73482H18.939C19.9807 4.73482 20.8329 5.58709 20.8329 6.62876ZM7.10189 8.5227C7.10189 7.76512 6.43901 7.10224 5.68143 7.10224C4.92386 7.10224 4.26098 7.76512 4.26098 8.5227C4.26098 9.28027 4.92386 9.94315 5.68143 9.94315C6.43901 9.94315 7.10189 9.28027 7.10189 8.5227ZM17.992 11.3636C17.992 8.71209 15.9087 6.62876 13.2572 6.62876C10.6057 6.62876 8.52234 8.71209 8.52234 11.3636C8.52234 14.0151 10.6057 16.0985 13.2572 16.0985C15.9087 16.0985 17.992 14.0151 17.992 11.3636Z" fill="#8A8A8A"/>
</svg>
