<svg preserveAspectRatio="none" width="100%" height="100%" overflow="visible" style="display: block;" viewBox="0 0 31.5243 36.0417" fill="none" xmlns="http://www.w3.org/2000/svg">
<g id="Group">
<path id="Vector" d="M9.02434 18.9167V3.6875C9.02434 2.97473 9.30748 2.29115 9.81149 1.78715C10.3155 1.28315 10.9991 1 11.7118 1C12.4246 1 13.1082 1.28315 13.6122 1.78715C14.1162 2.29115 14.3993 2.97473 14.3993 3.6875V17.125M14.3993 16.2292V12.6458C14.3993 12.2929 14.4689 11.9434 14.6039 11.6174C14.739 11.2913 14.9369 10.995 15.1865 10.7455C15.436 10.4959 15.7323 10.298 16.0584 10.1629C16.3844 10.0278 16.7339 9.95833 17.0868 9.95833C17.4398 9.95833 17.7892 10.0278 18.1153 10.1629C18.4414 10.298 18.7376 10.4959 18.9872 10.7455C19.2367 10.995 19.4347 11.2913 19.5698 11.6174C19.7048 11.9434 19.7743 12.2929 19.7743 12.6458V17.125M19.7743 14.4375C19.7743 13.7247 20.0575 13.0412 20.5615 12.5371C21.0655 12.0331 21.7491 11.75 22.4618 11.75C23.1746 11.75 23.8582 12.0331 24.3622 12.5371C24.8662 13.0412 25.1493 13.7247 25.1493 14.4375V17.125" stroke="var(--stroke-0, #FFFBFB)" stroke-width="2" stroke-linecap="round" stroke-linejoin="round"/>
<path id="Vector_2" d="M25.1493 16.2292C25.1493 15.5164 25.4325 14.8328 25.9365 14.3288C26.4405 13.8248 27.1241 13.5417 27.8368 13.5417C28.5496 13.5417 29.2332 13.8248 29.7372 14.3288C30.2412 14.8328 30.5243 15.5164 30.5243 16.2292V24.2917C30.5243 27.1427 29.3918 29.877 27.3757 31.8931C25.3597 33.9091 22.6254 35.0417 19.7743 35.0417H16.191H16.5637C14.7834 35.042 13.0308 34.6001 11.4635 33.7558C9.89613 32.9114 8.56301 31.691 7.58384 30.2042L7.23267 29.6667C6.67367 28.8091 4.7112 25.3882 1.34525 19.404C1.00206 18.794 0.910387 18.0742 1.08973 17.3976C1.26908 16.7211 1.70529 16.1412 2.30559 15.7813C2.94527 15.3985 3.69432 15.24 4.4342 15.3309C5.17408 15.4218 5.86252 15.7568 6.39059 16.2829L9.02434 18.9167" stroke="var(--stroke-0, #FFFBFB)" stroke-width="2" stroke-linecap="round" stroke-linejoin="round"/>
</g>
</svg>
